# Blender 3.5.0
# www.blender.org
mtllib floor_1.mtl
o Ground_3
v -9.897240 0.000000 9.960701
v 10.102760 0.000000 9.960701
v -9.897240 0.000000 -10.039299
v 10.102760 0.000000 -10.039299
v -6.070037 0.011456 -3.985301
v -6.070037 0.028559 -3.985301
v -6.070037 0.011456 -4.368817
v -6.070037 0.028559 -4.368817
v -5.686521 0.011456 -4.368817
v -5.686521 0.028559 -4.368817
v -5.693387 0.011456 -4.134493
v -5.780883 0.011456 -4.006159
v -5.780883 0.028559 -4.006159
v -5.693387 0.028559 -4.134493
v -7.030814 0.017072 -6.698404
v -7.030814 0.040835 -6.698404
v -7.366517 0.017072 -6.512717
v -7.366517 0.040835 -6.512717
v -7.568736 0.017072 -6.767751
v -7.568736 0.034174 -6.767751
v -7.414345 0.011724 -6.902176
v -7.165482 0.011724 -6.859689
v -7.165482 0.039522 -6.859689
v -7.414345 0.039522 -6.902176
v -5.421022 -0.006369 -6.644327
v -5.421022 0.030876 -6.644327
v -4.552004 -0.006369 -6.123489
v -4.552004 0.030876 -6.123489
v -4.836478 -0.006369 -6.646067
v -4.836478 0.030876 -6.646067
v -4.937696 -0.006369 -6.048261
v -5.384813 -0.006369 -6.369834
v -5.384813 0.030876 -6.369834
v -4.937696 0.030876 -6.048261
v -2.415867 0.009572 -2.891033
v -2.415867 0.030443 -2.891033
v -2.182173 0.009572 -3.296548
v -2.182173 0.030443 -3.296548
v -2.010352 0.009572 -2.657340
v -2.010352 0.030443 -2.657340
v -1.776658 0.009572 -3.062855
v -1.776658 0.030443 -3.062855
v -7.447812 0.014313 6.127042
v -7.447812 0.042097 6.127042
v -7.426029 0.014313 6.540486
v -7.426029 0.042097 6.540486
v -7.495849 0.014313 6.565590
v -7.676390 0.014313 6.516314
v -7.676390 0.042097 6.516314
v -7.495849 0.042097 6.565590
v -7.638301 0.014313 6.276585
v -7.543520 0.014313 6.154287
v -7.543520 0.042097 6.154287
v -7.638301 0.042097 6.276585
v 6.017549 0.014313 -4.639085
v 6.017549 0.042097 -4.639085
v 5.603543 0.014313 -4.635793
v 5.603543 0.042097 -4.635793
v 5.581583 0.014313 -4.706665
v 5.638875 0.014313 -4.884824
v 5.638875 0.042097 -4.884824
v 5.581583 0.042097 -4.706665
v 5.876663 0.014313 -4.836064
v 5.994605 0.014313 -4.735915
v 5.994605 0.042097 -4.735915
v 5.876663 0.042097 -4.836064
v 2.487438 0.004543 2.314510
v 2.487438 0.019963 2.314510
v 2.847219 0.004543 2.530141
v 2.847219 0.019963 2.530141
v 2.729445 0.004543 2.313789
v 2.729445 0.019963 2.313789
v 2.687540 0.004543 2.561285
v 2.502429 0.004543 2.428152
v 2.502429 0.019963 2.428152
v 2.687540 0.019963 2.561285
v 2.366407 0.009572 0.806185
v 2.366407 0.030443 0.806185
v 2.600101 0.009572 0.400670
v 2.600101 0.030443 0.400670
v 2.771923 0.009572 1.039879
v 2.771923 0.030443 1.039879
v 3.005616 0.009572 0.634364
v 3.005616 0.030443 0.634364
v 0.678547 0.009572 3.739849
v 0.678547 0.030443 3.739849
v 0.912240 0.009572 3.334333
v 0.912240 0.030443 3.334333
v 1.084062 0.009572 3.973542
v 1.084062 0.030443 3.973542
v 1.317755 0.009572 3.568027
v 1.317755 0.030443 3.568027
v 6.144000 0.009572 3.900597
v 6.144000 0.030443 3.900597
v 6.377695 0.009572 3.495082
v 6.377695 0.030443 3.495082
v 6.549515 0.009572 4.134291
v 6.549515 0.030443 4.134291
v 6.783210 0.009572 3.728776
v 6.783210 0.030443 3.728776
v 3.563426 0.022293 3.582753
v 3.563426 0.040015 3.582753
v 3.476192 0.022293 3.195028
v 3.476192 0.040015 3.195028
v 3.990920 0.022293 3.459727
v 3.990920 0.040015 3.459727
v 3.816194 0.022293 3.143586
v 3.816194 0.040015 3.143586
v -1.867121 0.022293 -1.064692
v -1.867121 0.040015 -1.064692
v -1.494271 0.022293 -1.202256
v -1.494271 0.040015 -1.202256
v -1.688835 0.022293 -0.657136
v -1.688835 0.040015 -0.657136
v -1.398476 0.022293 -0.871998
v -1.398476 0.040015 -0.871998
v 2.109123 -0.019320 2.359143
v 2.109123 0.043827 2.359143
v 2.552172 -0.019320 4.018724
v 2.552172 0.043827 4.018724
v 2.822670 -0.019320 3.046914
v 2.822670 0.043827 3.046914
v 1.993931 -0.019320 3.655091
v 1.829236 -0.019320 2.735983
v 1.829236 0.043827 2.735984
v 1.993931 0.043827 3.655091
v -1.485730 -0.006369 6.740879
v -1.485730 0.030876 6.740879
v -1.131643 -0.006369 7.690135
v -1.131643 0.030876 7.690135
v -1.027861 -0.006369 7.104267
v -1.027861 0.030876 7.104267
v -1.479978 -0.006369 7.508255
v -1.628715 -0.006369 6.977970
v -1.628715 0.030876 6.977971
v -1.479978 0.030876 7.508255
v -8.486866 0.011456 -4.362852
v -8.486866 0.028559 -4.362852
v -8.103351 0.011456 -4.362178
v -8.103351 0.028559 -4.362178
v -8.104025 0.011456 -3.978664
v -8.104025 0.028559 -3.978664
v -8.338337 0.011456 -3.985940
v -8.466516 0.011456 -4.073663
v -8.466516 0.028559 -4.073663
v -8.338337 0.028559 -3.985940
vn -0.0000 1.0000 -0.0000
vn -1.0000 -0.0000 -0.0000
vn -0.0000 -0.0000 -1.0000
vn 0.0719 -0.0000 0.9974
vn 0.8262 -0.0000 0.5633
vn 0.9996 -0.0000 0.0293
vn 0.4840 -0.0000 0.8751
vn -0.7836 -0.0000 0.6213
vn 0.7676 -0.0000 -0.6409
vn -0.0102 0.9999 -0.0030
vn 0.1683 -0.0000 -0.9857
vn -0.6567 -0.0000 -0.7542
vn 0.1914 -0.0000 0.9815
vn -0.0030 -0.0000 -1.0000
vn 0.8783 -0.0000 -0.4781
vn -0.5839 -0.0000 0.8118
vn -0.9914 -0.0000 0.1308
vn -0.8664 -0.0000 -0.4993
vn 0.4993 -0.0000 -0.8664
vn 0.8664 -0.0000 0.4993
vn -0.4993 -0.0000 0.8664
vn 0.9986 -0.0000 -0.0526
vn -0.9876 -0.0000 -0.1569
vn -0.2633 -0.0000 0.9647
vn 0.3383 -0.0000 0.9410
vn -0.7904 -0.0000 -0.6126
vn -0.2738 -0.0000 -0.9618
vn 0.0080 -0.0000 1.0000
vn 0.2009 -0.0000 -0.9796
vn -0.9520 -0.0000 -0.3061
vn -0.9552 -0.0000 0.2960
vn 0.6473 -0.0000 -0.7623
vn 0.9731 -0.0000 -0.2306
vn -0.9756 -0.0000 0.2195
vn -0.1496 -0.0000 -0.9887
vn 0.8752 -0.0000 -0.4837
vn 0.2766 -0.0000 0.9610
vn -0.3461 -0.0000 -0.9382
vn 0.9604 -0.0000 -0.2786
vn 0.5948 -0.0000 0.8038
vn -0.9162 -0.0000 0.4008
vn -0.5458 -0.0000 0.8379
vn 0.6940 -0.0000 -0.7200
vn 0.9634 -0.0000 0.2682
vn -0.9843 -0.0000 0.1764
vn -0.8028 -0.0000 -0.5963
vn -0.4628 -0.0000 0.8864
vn 0.6217 -0.0000 -0.7833
vn 0.9847 -0.0000 0.1744
vn -0.9628 -0.0000 0.2701
vn -0.8563 -0.0000 -0.5164
vn 0.0018 -0.0000 -1.0000
vn 1.0000 -0.0000 0.0018
vn -0.9975 -0.0000 0.0702
vn -0.5648 -0.0000 0.8252
vn -0.0310 -0.0000 0.9995
vt 0.056888 0.404132
vt 0.252758 0.404132
vt 0.056888 0.600002
vt 0.252758 0.600002
vt 0.389615 0.377213
vt 0.389615 0.589716
vt 0.602118 0.377213
vt 0.602118 0.589716
vt 0.558319 0.397505
vt 0.389615 0.589716
vt 0.389615 0.377213
vt 0.602118 0.589716
vt 0.602118 0.377213
vt 0.596918 0.516298
vt 0.389615 0.589716
vt 0.389615 0.377213
vt 0.602118 0.589716
vt 0.495866 0.589716
vt 0.602118 0.377213
vt 0.602118 0.589716
vt 0.389615 0.589716
vt 0.389615 0.377213
vt 0.602118 0.377213
vt 0.602118 0.377213
vt 0.433413 0.397505
vt 0.389615 0.377213
vt 0.394815 0.516298
vt 0.389615 0.589716
vt 0.602118 0.589716
vt 0.389615 0.377213
vt 0.389615 0.589716
vt 0.602118 0.377213
vt 0.602118 0.589716
vt 0.558319 0.397505
vt 0.389615 0.589716
vt 0.389615 0.377213
vt 0.602118 0.589716
vt 0.602118 0.377213
vt 0.596918 0.516298
vt 0.389615 0.589716
vt 0.389615 0.377213
vt 0.602118 0.589716
vt 0.495866 0.589716
vt 0.602118 0.377213
vt 0.602118 0.589716
vt 0.389615 0.589716
vt 0.389615 0.377213
vt 0.602118 0.377213
vt 0.602118 0.377213
vt 0.433413 0.397505
vt 0.389615 0.377213
vt 0.394815 0.516298
vt 0.389615 0.589716
vt 0.602118 0.589716
vt 0.389615 0.377213
vt 0.389615 0.589716
vt 0.602118 0.377213
vt 0.596918 0.516298
vt 0.602118 0.589716
vt 0.389615 0.377213
vt 0.389615 0.589716
vt 0.602118 0.377213
vt 0.602118 0.589716
vt 0.394815 0.516298
vt 0.389615 0.589716
vt 0.389615 0.377213
vt 0.602118 0.589716
vt 0.602118 0.377213
vt 0.495866 0.589716
vt 0.389615 0.589716
vt 0.389615 0.377213
vt 0.389615 0.589716
vt 0.389615 0.377213
vt 0.558319 0.397505
vt 0.602118 0.589716
vt 0.602118 0.377213
vt 0.602118 0.589716
vt 0.433413 0.397505
vt 0.602118 0.377213
vt 0.389615 0.377213
vt 0.389615 0.589716
vt 0.602118 0.377213
vt 0.602118 0.589716
vt 0.389615 0.589716
vt 0.389615 0.377213
vt 0.602118 0.589716
vt 0.602118 0.377213
vt 0.389615 0.589716
vt 0.389615 0.377213
vt 0.602118 0.589716
vt 0.602118 0.377213
vt 0.389615 0.589716
vt 0.389615 0.589716
vt 0.389615 0.377213
vt 0.602118 0.589716
vt 0.602118 0.377213
vt 0.389615 0.377213
vt 0.389615 0.377213
vt 0.389615 0.589716
vt 0.602118 0.377213
vt 0.495866 0.377213
vt 0.602118 0.589716
vt 0.389615 0.589716
vt 0.389615 0.377213
vt 0.602118 0.589716
vt 0.587883 0.430339
vt 0.602118 0.377213
vt 0.602118 0.589716
vt 0.389615 0.589716
vt 0.389615 0.377213
vt 0.602118 0.377213
vt 0.495866 0.589716
vt 0.602118 0.377213
vt 0.389615 0.377213
vt 0.587883 0.536590
vt 0.389615 0.589716
vt 0.602118 0.589716
vt 0.389615 0.589716
vt 0.602118 0.589716
vt 0.602118 0.377213
vt 0.389615 0.377213
vt 0.403850 0.430339
vt 0.389615 0.377213
vt 0.602118 0.377213
vt 0.403850 0.536590
vt 0.602118 0.589716
vt 0.389615 0.589716
vt 0.389615 0.377213
vt 0.389615 0.589716
vt 0.602118 0.377213
vt 0.495866 0.377213
vt 0.602118 0.589716
vt 0.389615 0.589716
vt 0.389615 0.377213
vt 0.602118 0.589716
vt 0.587883 0.430339
vt 0.602118 0.377213
vt 0.602118 0.589716
vt 0.389615 0.589716
vt 0.389615 0.377213
vt 0.602118 0.377213
vt 0.495866 0.589716
vt 0.602118 0.377213
vt 0.389615 0.377213
vt 0.587883 0.536590
vt 0.389615 0.589716
vt 0.602118 0.589716
vt 0.389615 0.589716
vt 0.602118 0.589716
vt 0.602118 0.377213
vt 0.389615 0.377213
vt 0.403850 0.430339
vt 0.389615 0.377213
vt 0.602118 0.377213
vt 0.403850 0.536590
vt 0.602118 0.589716
vt 0.389615 0.589716
vt 0.389615 0.377213
vt 0.389615 0.589716
vt 0.602118 0.377213
vt 0.596918 0.516298
vt 0.602118 0.589716
vt 0.389615 0.377213
vt 0.389615 0.589716
vt 0.602118 0.377213
vt 0.602118 0.589716
vt 0.394815 0.516298
vt 0.389615 0.589716
vt 0.389615 0.377213
vt 0.602118 0.589716
vt 0.602118 0.377213
vt 0.495866 0.589716
vt 0.389615 0.589716
vt 0.389615 0.377213
vt 0.389615 0.589716
vt 0.389615 0.377213
vt 0.558319 0.397505
vt 0.602118 0.589716
vt 0.602118 0.377213
vt 0.602118 0.589716
vt 0.433413 0.397505
vt 0.602118 0.377213
vt 0.389615 0.377213
vt 0.389615 0.589716
vt 0.602118 0.377213
vt 0.602118 0.589716
vt 0.389615 0.589716
vt 0.389615 0.377213
vt 0.602118 0.589716
vt 0.602118 0.377213
vt 0.389615 0.589716
vt 0.389615 0.377213
vt 0.602118 0.589716
vt 0.602118 0.377213
vt 0.389615 0.589716
vt 0.389615 0.589716
vt 0.389615 0.377213
vt 0.602118 0.589716
vt 0.602118 0.377213
vt 0.389615 0.377213
vt 0.389615 0.377213
vt 0.389615 0.589716
vt 0.602118 0.377213
vt 0.602118 0.589716
vt 0.389615 0.589716
vt 0.389615 0.377213
vt 0.602118 0.589716
vt 0.602118 0.377213
vt 0.389615 0.589716
vt 0.389615 0.377213
vt 0.602118 0.589716
vt 0.602118 0.377213
vt 0.389615 0.589716
vt 0.389615 0.589716
vt 0.389615 0.377213
vt 0.602118 0.589716
vt 0.602118 0.377213
vt 0.389615 0.377213
vt 0.389615 0.377213
vt 0.389615 0.589716
vt 0.602118 0.377213
vt 0.602118 0.589716
vt 0.389615 0.589716
vt 0.389615 0.377213
vt 0.602118 0.589716
vt 0.602118 0.377213
vt 0.389615 0.589716
vt 0.389615 0.377213
vt 0.602118 0.589716
vt 0.602118 0.377213
vt 0.389615 0.589716
vt 0.389615 0.589716
vt 0.389615 0.377213
vt 0.602118 0.589716
vt 0.602118 0.377213
vt 0.389615 0.377213
vt 0.389615 0.377213
vt 0.389615 0.589716
vt 0.602118 0.377213
vt 0.602118 0.589716
vt 0.389615 0.589716
vt 0.389615 0.377213
vt 0.602118 0.589716
vt 0.602118 0.377213
vt 0.389615 0.589716
vt 0.389615 0.377213
vt 0.602118 0.589716
vt 0.602118 0.377213
vt 0.389615 0.589716
vt 0.389615 0.589716
vt 0.389615 0.377213
vt 0.602118 0.589716
vt 0.602118 0.377213
vt 0.389615 0.377213
vt 0.389615 0.377213
vt 0.389615 0.589716
vt 0.602118 0.377213
vt 0.602118 0.589716
vt 0.389615 0.589716
vt 0.389615 0.377213
vt 0.602118 0.589716
vt 0.602118 0.377213
vt 0.389615 0.589716
vt 0.389615 0.377213
vt 0.602118 0.589716
vt 0.602118 0.377213
vt 0.389615 0.589716
vt 0.389615 0.589716
vt 0.389615 0.377213
vt 0.602118 0.589716
vt 0.602118 0.377213
vt 0.389615 0.377213
vt 0.389615 0.377213
vt 0.389615 0.589716
vt 0.602118 0.377213
vt 0.596918 0.516298
vt 0.602118 0.589716
vt 0.389615 0.377213
vt 0.389615 0.589716
vt 0.602118 0.377213
vt 0.602118 0.589716
vt 0.394815 0.516298
vt 0.389615 0.589716
vt 0.389615 0.377213
vt 0.602118 0.589716
vt 0.602118 0.377213
vt 0.495866 0.589716
vt 0.389615 0.589716
vt 0.389615 0.377213
vt 0.389615 0.589716
vt 0.389615 0.377213
vt 0.558319 0.397505
vt 0.602118 0.589716
vt 0.602118 0.377213
vt 0.602118 0.589716
vt 0.433413 0.397505
vt 0.602118 0.377213
vt 0.389615 0.377213
vt 0.389615 0.589716
vt 0.602118 0.377213
vt 0.596918 0.516298
vt 0.602118 0.589716
vt 0.389615 0.377213
vt 0.389615 0.589716
vt 0.602118 0.377213
vt 0.602118 0.589716
vt 0.394815 0.516298
vt 0.389615 0.589716
vt 0.389615 0.377213
vt 0.602118 0.589716
vt 0.602118 0.377213
vt 0.495866 0.589716
vt 0.389615 0.589716
vt 0.389615 0.377213
vt 0.389615 0.589716
vt 0.389615 0.377213
vt 0.558319 0.397505
vt 0.602118 0.589716
vt 0.602118 0.377213
vt 0.602118 0.589716
vt 0.433413 0.397505
vt 0.602118 0.377213
vt 0.389615 0.377213
vt 0.389615 0.589716
vt 0.602118 0.377213
vt 0.602118 0.589716
vt 0.558319 0.397505
vt 0.389615 0.589716
vt 0.389615 0.377213
vt 0.602118 0.589716
vt 0.602118 0.377213
vt 0.596918 0.516298
vt 0.389615 0.589716
vt 0.389615 0.377213
vt 0.602118 0.589716
vt 0.495866 0.589716
vt 0.602118 0.377213
vt 0.602118 0.589716
vt 0.389615 0.589716
vt 0.389615 0.377213
vt 0.602118 0.377213
vt 0.602118 0.377213
vt 0.433413 0.397505
vt 0.389615 0.377213
vt 0.394815 0.516298
vt 0.389615 0.589716
vt 0.602118 0.589716
s 0
usemtl Dungeon_Material
f 1/1/1 2/2/1 4/4/1 3/3/1
f 5/5/2 6/7/2 8/12/2 7/10/2
f 7/11/3 8/13/3 10/17/3 9/15/3
f 12/22/4 13/24/4 6/8/4 5/6/4
f 10/18/1 8/14/1 6/9/1 13/25/1 14/27/1
f 13/26/5 12/23/5 11/20/5 14/28/5
f 9/16/6 10/19/6 14/29/6 11/21/6
f 15/30/7 16/32/7 18/37/7 17/35/7
f 17/36/8 18/38/8 20/42/8 19/40/8
f 22/47/9 23/49/9 16/33/9 15/31/9
f 20/43/10 18/39/10 16/34/10 23/50/10 24/52/10
f 23/51/11 22/48/11 21/45/11 24/53/11
f 19/41/12 20/44/12 24/54/12 21/46/12
f 27/60/13 28/62/13 34/77/13 31/70/13
f 25/55/14 26/57/14 30/67/14 29/65/14
f 29/66/15 30/68/15 28/63/15 27/61/15
f 30/69/1 26/58/1 33/74/1 34/78/1 28/64/1
f 31/71/16 34/79/16 33/75/16 32/72/16
f 32/73/17 33/76/17 26/59/17 25/56/17
f 35/80/18 36/82/18 38/86/18 37/84/18
f 37/85/19 38/87/19 42/95/19 41/93/19
f 41/94/20 42/96/20 40/90/20 39/88/20
f 39/89/21 40/91/21 36/83/21 35/81/21
f 42/97/1 38/87/1 36/83/1 40/92/1
f 43/98/22 44/100/22 46/105/22 45/103/22
f 49/112/1 50/115/1 46/106/1 44/101/1 53/122/1 54/125/1
f 48/110/23 49/113/23 54/126/23 51/118/23
f 49/114/24 48/111/24 47/108/24 50/116/24
f 45/104/25 46/107/25 50/117/25 47/109/25
f 53/123/26 52/120/26 51/119/26 54/127/26
f 52/121/27 53/124/27 44/102/27 43/99/27
f 55/128/28 56/130/28 58/135/28 57/133/28
f 61/142/1 62/145/1 58/136/1 56/131/1 65/152/1 66/155/1
f 60/140/29 61/143/29 66/156/29 63/148/29
f 61/144/30 60/141/30 59/138/30 62/146/30
f 57/134/31 58/137/31 62/147/31 59/139/31
f 65/153/32 64/150/32 63/149/32 66/157/32
f 64/151/33 65/154/33 56/132/33 55/129/33
f 69/163/13 70/165/13 76/180/13 73/173/13
f 67/158/14 68/160/14 72/170/14 71/168/14
f 71/169/15 72/171/15 70/166/15 69/164/15
f 72/172/1 68/161/1 75/177/1 76/181/1 70/167/1
f 73/174/16 76/182/16 75/178/16 74/175/16
f 74/176/17 75/179/17 68/162/17 67/159/17
f 77/183/18 78/185/18 80/189/18 79/187/18
f 79/188/19 80/190/19 84/198/19 83/196/19
f 83/197/20 84/199/20 82/193/20 81/191/20
f 81/192/21 82/194/21 78/186/21 77/184/21
f 84/200/1 80/190/1 78/186/1 82/195/1
f 85/201/18 86/203/18 88/207/18 87/205/18
f 87/206/19 88/208/19 92/216/19 91/214/19
f 91/215/20 92/217/20 90/211/20 89/209/20
f 89/210/21 90/212/21 86/204/21 85/202/21
f 92/218/1 88/208/1 86/204/1 90/213/1
f 93/219/18 94/221/18 96/225/18 95/223/18
f 95/224/19 96/226/19 100/234/19 99/232/19
f 99/233/20 100/235/20 98/229/20 97/227/20
f 97/228/21 98/230/21 94/222/21 93/220/21
f 100/236/1 96/226/1 94/222/1 98/231/1
f 101/237/34 102/239/34 104/243/34 103/241/34
f 103/242/35 104/244/35 108/252/35 107/250/35
f 107/251/36 108/253/36 106/247/36 105/245/36
f 105/246/37 106/248/37 102/240/37 101/238/37
f 108/254/1 104/244/1 102/240/1 106/249/1
f 109/255/38 110/257/38 112/261/38 111/259/38
f 111/260/39 112/262/39 116/270/39 115/268/39
f 115/269/40 116/271/40 114/265/40 113/263/40
f 113/264/41 114/266/41 110/258/41 109/256/41
f 116/272/1 112/262/1 110/258/1 114/267/1
f 119/278/42 120/280/42 126/295/42 123/288/42
f 117/273/43 118/275/43 122/285/43 121/283/43
f 121/284/44 122/286/44 120/281/44 119/279/44
f 122/287/1 118/276/1 125/292/1 126/296/1 120/282/1
f 123/289/45 126/297/45 125/293/45 124/290/45
f 124/291/46 125/294/46 118/277/46 117/274/46
f 129/303/47 130/305/47 136/320/47 133/313/47
f 127/298/48 128/300/48 132/310/48 131/308/48
f 131/309/49 132/311/49 130/306/49 129/304/49
f 132/312/1 128/301/1 135/317/1 136/321/1 130/307/1
f 133/314/50 136/322/50 135/318/50 134/315/50
f 134/316/51 135/319/51 128/302/51 127/299/51
f 137/323/52 138/325/52 140/330/52 139/328/52
f 139/329/53 140/331/53 142/335/53 141/333/53
f 144/340/54 145/342/54 138/326/54 137/324/54
f 142/336/1 140/332/1 138/327/1 145/343/1 146/345/1
f 145/344/55 144/341/55 143/338/55 146/346/55
f 141/334/56 142/337/56 146/347/56 143/339/56
