# Blender 3.5.0
# www.blender.org
mtllib wall_1_145tris.mtl
o Wall_OneSide
v -0.992243 1.263621 0.005206
v 1.007758 1.263623 0.005205
v 1.007758 0.014164 0.005205
v -0.992242 0.014160 0.005206
v -0.796033 0.905564 0.003748
v -0.818496 0.659090 0.028254
v -0.788566 0.905351 0.003616
v -0.397481 0.937465 0.004366
v -0.395232 0.651283 0.006019
v -0.805024 0.659032 0.003616
v -0.777245 0.895335 0.024729
v -0.417855 0.920128 0.024571
v -0.803772 0.660494 0.024235
v -0.390978 0.933035 0.003854
v 0.004037 0.924265 0.003800
v 0.000775 0.655227 0.003615
v -0.392244 0.653637 0.003798
v -0.013691 0.665243 0.024729
v 0.010791 0.925597 0.004328
v 0.404938 0.925842 0.004161
v 0.403897 0.642007 0.003615
v 0.006192 0.651143 0.005505
v 0.394462 0.662039 0.024729
v 0.411742 0.924381 0.003824
v 0.792678 0.924381 0.003615
v 0.985328 0.650437 0.006206
v 0.411953 0.637810 0.003750
v 0.982036 0.932747 0.018673
v -0.992304 0.923101 0.004145
v -0.992237 0.641890 0.003827
v 1.007758 0.924381 0.003824
v 1.007758 0.642008 0.004029
v -0.992243 0.621687 0.003825
v -0.593222 0.623865 0.003928
v -0.598245 0.363458 0.003805
v -0.992243 0.339313 0.004030
v -0.585622 0.623690 0.003616
v -0.194301 0.632120 0.003905
v -0.194765 0.330270 0.003978
v -0.590513 0.363323 0.003826
v -0.586241 0.614047 0.024729
v -0.186957 0.631303 0.003615
v 0.205479 0.622270 0.003994
v 0.205479 0.339315 0.003720
v -0.187591 0.330099 0.003720
v -0.185725 0.626604 0.024728
v 0.213343 0.621689 0.003824
v 0.606764 0.660202 0.003814
v 0.606534 0.339315 0.003615
v 0.213343 0.339315 0.003720
v 0.588598 0.350751 0.024992
v 0.614374 0.659678 0.003650
v 1.007968 0.627250 0.006549
v 1.007701 0.336047 0.005394
v 0.614398 0.339315 0.003615
v 0.629493 0.351334 0.024729
v -0.796411 0.299202 0.003616
v -0.796228 0.040853 0.003818
v -0.818425 0.295195 0.024729
v -0.788566 0.299202 0.003616
v -0.398824 0.308216 0.003615
v -0.396308 0.040866 0.003615
v -0.788643 0.040864 0.003685
v -0.770955 0.293192 0.024729
v -0.411404 0.269157 0.024729
v -0.396308 0.040866 0.024729
v -0.390084 0.305226 0.002952
v 0.000775 0.332854 0.003615
v 0.003794 0.040866 0.003615
v -0.388686 0.040854 0.003814
v -0.373368 0.299203 0.024729
v 0.011446 0.327821 0.024836
v 0.003794 0.040866 0.024729
v 0.008620 0.332854 0.003615
v 0.403897 0.316065 0.003615
v 0.404039 0.040855 0.003819
v 0.011350 0.040842 0.004019
v 0.036924 0.313826 0.024729
v 0.374964 0.308054 0.024729
v 0.411742 0.316065 0.003615
v 0.803999 0.323240 0.003615
v 0.804228 0.040855 0.003814
v 0.411742 0.040867 0.003615
v 0.389728 0.283014 0.024729
v 0.787017 0.290191 0.024729
v 0.411742 0.040867 0.024729
v 0.811844 0.323240 0.003615
v 0.811615 0.040856 0.003814
v 0.828826 0.303210 0.024729
v -0.992116 0.324655 0.004209
v -0.992242 0.040866 0.004030
v 1.007527 0.326996 0.006847
v 1.007758 0.040867 0.004029
v -0.992243 1.236992 0.003616
v -0.624378 1.227980 0.003616
v -0.592382 0.954115 0.003572
v -0.992137 0.948364 0.007523
v -0.992243 1.224975 0.024729
v -0.633403 1.214457 0.024779
v -0.605677 1.228981 0.003616
v -0.204553 1.236994 0.003615
v -0.195814 0.955363 0.003474
v -0.584263 0.967132 0.003557
v -0.604121 1.221328 0.023226
v -0.213988 1.232988 0.024729
v -0.207672 0.962643 0.024739
v -0.576205 0.965373 0.023231
v -0.178735 1.236994 0.003615
v 0.205479 1.236994 0.003615
v 0.205490 0.954252 0.003801
v -0.187986 0.953984 0.003822
v -0.173129 1.227455 0.024062
v 0.205479 1.236994 0.024729
v -0.169956 0.965906 0.025502
v 0.213330 1.237114 0.003820
v 0.606534 1.236994 0.003615
v 0.606534 0.954621 0.003615
v 0.213343 0.954620 0.003720
v 0.583891 1.218967 0.024729
v 0.606534 0.954622 0.024729
v 0.614398 1.236994 0.003615
v 1.007563 1.241321 0.008792
v 1.007758 0.954621 0.003615
v 0.614354 0.951197 0.003681
v 0.636346 1.209373 0.025393
v 1.007871 0.949100 0.024729
v -0.195576 1.096815 0.003615
v -0.604179 1.095807 0.003616
v -0.592437 0.642007 0.003616
v -0.395771 0.324504 0.003828
v -0.602720 0.342429 0.005662
v -0.808112 0.639714 0.003616
v -0.794170 0.327296 0.003616
v -0.808112 0.639714 0.024729
v -0.794170 0.327296 0.024729
v 0.006242 0.639716 0.003615
v 0.005550 0.350932 0.003615
v 0.005550 0.350932 0.024729
v 0.409939 0.621689 0.003615
v 0.409939 0.353665 0.003615
v 0.409939 0.621689 0.024729
v 0.609380 0.682870 0.003615
v 0.615041 0.702902 0.024729
v 0.810993 1.250014 0.003615
v 0.411196 1.219969 0.003615
v 0.406165 1.177903 0.024729
v 0.007625 1.259027 0.003615
v -0.416387 1.243503 0.003615
v 0.607871 0.319652 0.003615
v 0.621079 0.322657 0.024729
vn -0.0000 -0.0000 1.0000
vn 0.0203 -0.6321 0.7747
vn -0.8681 0.0580 0.4930
vn -0.0538 0.7840 0.6185
vn -0.0552 0.0001 0.9985
vn 0.8226 -0.0104 0.5685
vn -0.0496 0.0051 0.9988
vn 0.9115 -0.0041 0.4112
vn -0.1026 -0.0003 0.9947
vn -0.0665 -0.7149 0.6961
vn -0.0003 0.8755 -0.4831
vn -0.1391 -0.0012 0.9903
vn -0.1042 -0.0047 0.9945
vn 0.1815 -0.9834 -0.0000
vn -0.0974 0.9952 -0.0000
vn -0.0165 -0.0828 0.9964
vn -0.9996 0.0188 -0.0207
vn -0.0199 0.9096 0.4149
vn -0.1004 -0.0697 0.9925
vn -0.0580 -0.9983 -0.0000
vn -0.9983 0.0021 0.0587
vn -0.0424 0.9747 0.2194
vn -0.0566 -0.0004 0.9984
vn 0.7658 -0.0009 0.6430
vn -0.0000 1.0000 -0.0000
vn 0.0509 -0.0040 0.9987
vn -0.0095 -0.8661 0.4998
vn -0.0534 -0.0793 0.9954
vn 0.9978 0.0660 -0.0000
vn -0.7679 0.0004 0.6406
vn -0.0531 -0.0775 0.9956
vn 0.9996 -0.0267 -0.0000
vn -0.7935 -0.0022 0.6085
vn -0.0705 0.9462 0.3158
vn 0.0005 -0.0780 0.9970
vn -0.5999 -0.0045 0.8001
vn 0.0389 0.9154 0.4006
vn -0.0000 -1.0000 -0.0000
vn -0.6922 -0.0000 -0.7217
vn -0.0181 0.9914 -0.1297
vn -0.0011 -0.0794 0.9968
vn -0.7787 0.0011 0.6274
vn 0.1236 0.9433 0.3079
vn 0.0011 -0.0818 0.9966
vn 0.8777 0.1341 0.4600
vn 0.0205 0.8385 0.5446
vn -0.0083 -0.9475 0.3197
vn 0.8109 0.0190 0.5848
vn -0.0711 0.9273 0.3675
vn 0.0006 -0.8765 0.4815
vn -0.9656 -0.0103 0.2599
vn -0.0533 -0.0478 0.9974
vn 0.9964 0.0853 -0.0000
vn 0.0394 0.4445 0.8949
vn -0.0537 -0.0791 0.9954
vn 0.0084 -0.9674 -0.2530
vn -0.7042 0.0003 0.7100
vn -0.9956 -0.0814 0.0472
vn 0.8731 -0.0020 0.4875
vn 0.0110 -0.0795 0.9968
vn 0.0430 -0.0652 0.9969
vn 0.0013 -0.0712 0.9975
vn 0.0848 0.4525 0.8877
vn 0.1067 -0.0025 0.9943
vn 0.1045 -0.0010 0.9945
vn 0.0438 -0.0436 0.9981
vn -0.0692 0.7941 0.6038
vn 0.1107 0.9939 -0.0000
vn 0.0553 -0.0737 0.9957
vn 0.0301 0.9795 0.1993
vn -0.0039 -0.0001 1.0000
vn -0.0099 0.5420 0.8403
vn 0.0530 -0.0798 0.9954
vn 0.0006 -0.0022 1.0000
vn 0.7000 0.0096 0.7141
vn -0.9923 0.1120 0.0523
vn -0.0736 0.8852 0.4594
vn 0.0019 0.0804 0.9968
vn 0.0038 -0.9025 0.4307
vn 0.0004 0.0777 0.9970
vn -0.0135 -0.7284 0.6850
vn -0.0270 0.0694 0.9972
vn 0.0772 0.0449 -0.9960
vn 0.0108 0.0980 0.9951
vn -0.1129 0.0007 0.9936
vn -0.1055 -0.0686 0.9921
vn -0.0658 -0.9018 0.4272
vn -0.0017 0.0681 0.9977
vn -0.8135 -0.0001 0.5816
vn 0.6921 0.0011 0.7218
vn 0.0782 0.1161 0.9901
vn 0.8525 0.0080 0.5227
vn -0.2095 0.8805 0.4253
vn -0.0003 -0.0004 1.0000
vn 0.8943 0.0092 -0.4475
vn -0.0013 -0.0755 0.9971
vn 0.5893 0.0009 0.8079
vn 0.0128 0.7513 0.6599
vn 0.7784 0.0011 0.6278
vn -0.9959 -0.0905 -0.0000
vn -0.0997 0.5820 0.8071
vn 0.1008 -0.0097 0.9949
vn -0.0253 0.7150 0.6986
vn -0.1174 -0.0006 0.9931
vn 0.0254 0.8688 0.4945
vn 0.9073 0.0581 0.4165
vn 1.0000 -0.0000 -0.0000
vn -0.7755 0.0258 0.6308
vn -0.1052 0.8898 0.4440
vn -0.1079 -0.0004 0.9942
vn 0.6820 -0.0000 0.7314
vn -0.0397 0.5990 0.7997
vn -0.9238 -0.1007 0.3694
vn 0.7361 0.0611 0.6741
vn -0.0020 -0.0621 0.9981
vn -0.0796 -0.9940 0.0753
vn 0.0530 0.0002 0.9986
vn -0.1017 -0.0067 0.9948
vn 0.0736 0.9973 -0.0000
vn -0.0606 -0.9982 -0.0000
vn 0.0967 0.0043 0.9953
vn 0.0495 0.5824 0.8114
vn 0.1072 -0.9942 -0.0000
vn 0.0533 0.0370 0.9979
vn -0.0685 0.9624 0.2627
vn -0.1920 0.9814 -0.0000
vn 0.0582 -0.8013 -0.5954
vn 0.0934 0.0625 0.9937
vn 0.1687 -0.7372 0.6542
vn -0.0019 0.4788 0.8779
vn 0.0399 0.0545 0.9977
vn -0.1054 0.4561 0.8836
vn -0.0167 0.6093 0.7928
vn -0.0019 0.0055 1.0000
vn -0.0041 -0.0004 1.0000
vn -0.0256 0.7751 0.6314
vn -0.0302 -0.9966 -0.0767
vn 0.1858 0.9499 -0.2514
vt 0.211124 0.867473
vt 0.211124 0.791294
vt 0.134945 0.791294
vt 0.134945 0.867473
vt 0.875320 0.785801
vt 0.783910 0.785801
vt 0.783910 0.785801
vt 0.875320 0.785801
vt 0.875320 0.785801
vt 0.783910 0.785801
vt 0.875320 0.781689
vt 0.783910 0.785801
vt 0.783910 0.781689
vt 0.875320 0.785801
vt 0.783910 0.785801
vt 0.783910 0.877211
vt 0.875320 0.877211
vt 0.783910 0.877211
vt 0.875320 0.785947
vt 0.875320 0.785801
vt 0.875320 0.877211
vt 0.783910 0.877211
vt 0.783910 0.876663
vt 0.875320 0.877211
vt 0.784458 0.877211
vt 0.875320 0.786834
vt 0.875320 0.785801
vt 0.783910 0.785801
vt 0.875320 0.785801
vt 0.783910 0.786594
vt 0.783910 0.877211
vt 0.783910 0.785801
vt 0.875320 0.877211
vt 0.875320 0.784709
vt 0.875320 0.788167
vt 0.875320 0.785801
vt 0.783910 0.785801
vt 0.875320 0.785801
vt 0.783910 0.781907
vt 0.783910 0.877211
vt 0.783910 0.785801
vt 0.875320 0.877211
vt 0.875320 0.786706
vt 0.783910 0.785801
vt 0.875320 0.785801
vt 0.875320 0.786668
vt 0.783910 0.785801
vt 0.783910 0.786668
vt 0.783910 0.786384
vt 0.783910 0.877211
vt 0.875320 0.785801
vt 0.875320 0.877211
vt 0.875320 0.788091
vt 0.783910 0.786714
vt 0.875320 0.786706
vt 0.783910 0.786212
vt 0.875320 0.785801
vt 0.875320 0.786190
vt 0.783910 0.785801
vt 0.783910 0.787593
vt 0.435266 0.790602
vt 0.526676 0.790602
vt 0.435383 0.789671
vt 0.526676 0.790602
vt 0.435266 0.790602
vt 0.435266 0.791513
vt 0.526676 0.791513
vt 0.435266 0.882012
vt 0.526676 0.882012
vt 0.783910 0.785801
vt 0.875320 0.785801
vt 0.783910 0.785903
vt 0.875320 0.785801
vt 0.875320 0.786256
vt 0.783910 0.785801
vt 0.875320 0.786256
vt 0.783910 0.786256
vt 0.875320 0.876452
vt 0.783910 0.877211
vt 0.874561 0.877211
vt 0.875320 0.877211
vt 0.875320 0.786706
vt 0.875320 0.786662
vt 0.783910 0.786662
vt 0.875320 0.785801
vt 0.783910 0.785801
vt 0.875320 0.785801
vt 0.783910 0.786256
vt 0.783910 0.877211
vt 0.783910 0.785801
vt 0.874729 0.877211
vt 0.875320 0.877211
vt 0.783910 0.786392
vt 0.875320 0.786399
vt 0.783910 0.786399
vt 0.875320 0.785801
vt 0.783910 0.785801
vt 0.875320 0.793503
vt 0.783910 0.785801
vt 0.875320 0.785801
vt 0.783910 0.877211
vt 0.875320 0.877211
vt 0.431132 0.809204
vt 0.522542 0.809204
vt 0.431132 0.809204
vt 0.431132 0.810078
vt 0.431132 0.900614
vt 0.522542 0.900614
vt 0.522542 0.809204
vt 0.783910 0.785801
vt 0.875320 0.785801
vt 0.783910 0.785801
vt 0.875320 0.785801
vt 0.875320 0.785801
vt 0.783910 0.785801
vt 0.875320 0.786100
vt 0.783910 0.786100
vt 0.783910 0.877211
vt 0.875320 0.877211
vt 0.783910 0.877211
vt 0.875320 0.877211
vt 0.875320 0.785801
vt 0.783910 0.877211
vt 0.875320 0.877211
vt 0.783910 0.785801
vt 0.783910 0.785801
vt 0.874898 0.785801
vt 0.875320 0.785801
vt 0.875320 0.785801
vt 0.783910 0.785801
vt 0.783910 0.785801
vt 0.875320 0.785801
vt 0.875320 0.786663
vt 0.783910 0.786663
vt 0.783910 0.877211
vt 0.875320 0.877211
vt 0.783910 0.877211
vt 0.875320 0.785801
vt 0.875320 0.877211
vt 0.875320 0.786279
vt 0.783910 0.877211
vt 0.783910 0.785801
vt 0.875320 0.877211
vt 0.435266 0.790602
vt 0.526676 0.790602
vt 0.435266 0.790602
vt 0.526676 0.790602
vt 0.435266 0.790602
vt 0.435266 0.791485
vt 0.526676 0.792350
vt 0.435266 0.792350
vt 0.435266 0.882012
vt 0.526676 0.882012
vt 0.526676 0.790602
vt 0.526676 0.882012
vt 0.435266 0.882012
vt 0.783910 0.785801
vt 0.875320 0.785801
vt 0.783910 0.785801
vt 0.875320 0.785801
vt 0.875320 0.786661
vt 0.783910 0.785801
vt 0.783910 0.786661
vt 0.783910 0.785801
vt 0.875320 0.785801
vt 0.783910 0.877211
vt 0.875320 0.877211
vt 0.875320 0.877211
vt 0.783910 0.877211
vt 0.875320 0.785801
vt 0.875320 0.877211
vt 0.783910 0.877211
vt 0.441467 0.792669
vt 0.532877 0.792669
vt 0.441467 0.793529
vt 0.532877 0.793529
vt 0.441467 0.884079
vt 0.532877 0.884079
vt 0.522542 0.811772
vt 0.431132 0.810996
vt 0.532877 0.792669
vt 0.441467 0.806663
vt 0.441467 0.792669
vt 0.875320 0.785801
vt 0.875320 0.785801
vt 0.783910 0.785801
vt 0.783910 0.785801
vt 0.783910 0.786564
vt 0.783910 0.800462
vt 0.875320 0.877211
vt 0.874514 0.877211
vt 0.783910 0.877211
vt 0.875320 0.877211
vt 0.875320 0.785801
vt 0.526676 0.790602
vt 0.435266 0.790602
vt 0.435266 0.790602
vt 0.526676 0.790602
vt 0.526555 0.790602
vt 0.435266 0.790602
vt 0.526676 0.790602
vt 0.526676 0.790602
vt 0.435266 0.790602
vt 0.525726 0.882012
vt 0.435266 0.882012
vt 0.526676 0.882012
vt 0.526676 0.790602
vt 0.526676 0.882012
vt 0.435266 0.882012
vt 0.526676 0.882012
vt 0.435267 0.882012
vt 0.435267 0.790602
vt 0.525954 0.882012
vt 0.435988 0.881916
vt 0.790111 0.814738
vt 0.881520 0.814738
vt 0.790111 0.814738
vt 0.881520 0.814738
vt 0.881520 0.815545
vt 0.790111 0.814738
vt 0.790111 0.815545
vt 0.790111 0.814738
vt 0.881520 0.814738
vt 0.790111 0.906148
vt 0.881520 0.906148
vt 0.881520 0.906148
vt 0.790111 0.906148
vt 0.881520 0.814738
vt 0.881520 0.906148
vt 0.790111 0.906148
vt 0.526676 0.791491
vt 0.435266 0.790602
vt 0.526676 0.790602
vt 0.526676 0.790602
vt 0.435266 0.790602
vt 0.435266 0.791057
vt 0.526676 0.882012
vt 0.435266 0.882012
vt 0.526676 0.790602
vt 0.435266 0.790602
vt 0.435266 0.882012
vt 0.526676 0.882012
vt 0.783910 0.785801
vt 0.875320 0.785801
vt 0.783910 0.808214
vt 0.875320 0.785801
vt 0.875320 0.785801
vt 0.784040 0.787526
vt 0.875320 0.787526
vt 0.783910 0.877211
vt 0.874547 0.877211
vt 0.875320 0.877211
vt 0.875263 0.877211
vt 0.783910 0.785858
vt 0.526676 0.790602
vt 0.435266 0.790602
vt 0.783910 0.785801
vt 0.875320 0.785801
vt 0.783910 0.785801
vt 0.875320 0.785801
vt 0.435266 0.790602
vt 0.435266 0.791523
vt 0.875320 0.785801
vt 0.783910 0.794659
vt 0.875320 0.794659
vt 0.783910 0.785801
vt 0.875320 0.785801
vt 0.783910 0.785801
vt 0.875320 0.785801
vt 0.783910 0.877211
vt 0.875320 0.785801
vt 0.875320 0.877211
vt 0.783910 0.785801
vt 0.875320 0.877211
vt 0.783910 0.877211
vt 0.783910 0.785801
vt 0.875320 0.785801
vt 0.783910 0.785801
vt 0.875320 0.785801
vt 0.783910 0.785801
vt 0.875320 0.877211
vt 0.783910 0.877211
vt 0.783910 0.785801
vt 0.875320 0.785801
vt 0.783910 0.785801
vt 0.875320 0.785801
vt 0.783910 0.877211
vt 0.875320 0.785801
vt 0.875320 0.877211
vt 0.783910 0.785801
vt 0.875320 0.785801
vt 0.783910 0.877211
vt 0.783910 0.785801
vt 0.875320 0.877211
vt 0.783910 0.785801
vt 0.875320 0.785801
vt 0.435266 0.790602
vt 0.526676 0.790602
vt 0.435266 0.882012
vt 0.526676 0.790602
vt 0.526676 0.882012
vt 0.790111 0.814738
vt 0.881520 0.814738
vt 0.435266 0.790602
vt 0.526676 0.790602
vt 0.783910 0.785801
vt 0.875320 0.785801
vt 0.875320 0.785801
vt 0.783910 0.877211
vt 0.875320 0.877211
s 0
usemtl Dungeon_Material
f 3/3/1 1/1/1 4/4/1
f 129/259/2 9/11/2 13/22/2
f 10/14/3 11/16/3 7/7/3
f 8/10/4 11/17/4 12/18/4
f 18/32/5 14/26/5 17/30/5
f 15/27/6 18/31/6 16/28/6
f 23/41/7 19/34/7 22/39/7
f 20/35/8 23/40/8 21/37/8
f 143/293/9 24/43/9 27/49/9
f 26/46/10 143/292/10 142/290/10
f 24/43/11 28/50/11 25/44/11
f 6/6/12 29/53/12 30/54/12
f 134/271/13 36/60/13 135/273/13
f 133/268/14 35/58/14 135/275/14
f 33/55/15 134/270/15 132/266/15
f 41/69/16 40/66/16 130/261/16
f 40/67/17 41/68/17 37/61/17
f 37/62/18 41/69/18 38/63/18
f 138/280/19 46/78/19 45/77/19
f 44/74/20 138/282/20 137/278/20
f 45/76/21 46/79/21 42/70/21
f 42/71/22 46/80/22 136/276/22
f 51/90/23 47/82/23 50/88/23
f 48/83/24 51/89/24 49/86/24
f 47/82/25 141/287/25 139/283/25
f 53/96/26 56/101/26 54/97/26
f 54/98/27 56/101/27 55/99/27
f 66/125/28 64/119/28 63/117/28
f 62/115/29 65/121/29 66/123/29
f 63/116/30 64/118/30 60/110/30
f 73/142/31 71/136/31 70/134/31
f 69/131/32 72/139/32 73/141/32
f 70/133/33 71/135/33 67/126/33
f 67/127/34 71/136/34 72/137/34
f 79/154/35 77/151/35 76/148/35
f 77/150/36 78/152/36 74/144/36
f 74/145/37 79/156/37 75/146/37
f 82/161/38 86/172/38 83/164/38
f 83/165/39 84/166/39 80/157/39
f 80/158/40 150/309/40 149/306/40
f 93/183/41 89/178/41 88/175/41
f 88/176/42 89/177/42 87/173/42
f 90/179/43 59/107/43 57/103/43
f 59/109/44 91/180/44 58/105/44
f 95/185/45 99/191/45 128/257/45
f 94/184/46 99/192/46 95/186/46
f 102/199/47 106/210/47 107/214/47
f 127/256/48 105/208/48 106/211/48
f 100/195/49 104/204/49 148/304/49
f 110/219/50 114/230/50 111/222/50
f 108/215/51 114/229/51 112/224/51
f 146/300/52 118/236/52 120/240/52
f 117/234/38 120/242/38 118/236/38
f 117/235/53 119/237/53 120/241/53
f 115/231/54 146/299/54 145/297/54
f 126/254/55 125/251/55 124/248/55
f 123/247/56 126/253/56 124/248/56
f 124/249/57 125/250/57 121/243/57
f 103/202/58 104/205/58 100/196/58
f 127/255/59 106/211/59 102/200/59
f 99/194/60 97/189/60 96/187/60
f 9/12/61 12/19/61 13/22/61
f 39/65/62 41/69/62 130/262/62
f 131/265/63 65/120/63 61/112/63
f 34/57/64 135/275/64 35/59/64
f 43/73/65 138/282/65 44/75/65
f 28/51/66 143/292/66 26/47/66
f 145/298/67 119/238/67 116/232/67
f 147/303/68 113/227/68 109/217/68
f 113/228/69 114/230/69 110/220/69
f 148/305/70 105/209/70 101/197/70
f 105/207/71 104/206/71 106/212/71
f 149/307/72 85/169/72 81/159/72
f 85/170/73 86/172/73 82/162/73
f 3/3/1 2/2/1 1/1/1
f 13/23/74 12/20/74 11/17/74
f 8/9/75 12/21/75 9/13/75
f 10/14/76 13/24/76 11/16/76
f 8/10/77 7/8/77 11/17/77
f 18/32/78 15/27/78 14/26/78
f 17/30/79 16/29/79 18/33/79
f 23/41/80 20/36/80 19/34/80
f 21/38/81 23/42/81 22/39/81
f 143/293/82 28/51/82 24/43/82
f 25/45/83 28/52/83 26/48/83
f 6/6/84 5/5/84 29/53/84
f 134/271/85 33/55/85 36/60/85
f 51/90/86 141/288/86 47/82/86
f 140/285/87 49/87/87 51/91/87
f 53/96/88 52/94/88 56/101/88
f 55/100/89 56/102/89 52/95/89
f 58/106/90 57/104/90 59/108/90
f 66/125/91 131/263/91 64/119/91
f 63/117/38 62/114/38 66/124/38
f 62/115/92 61/113/92 65/121/92
f 131/264/93 60/111/93 64/119/93
f 73/142/94 72/138/94 71/136/94
f 69/131/95 68/129/95 72/139/95
f 79/154/96 78/153/96 77/151/96
f 76/149/97 75/147/97 79/155/97
f 74/145/98 78/153/98 79/156/98
f 86/172/1 150/308/1 84/167/1
f 82/163/99 81/160/99 85/168/99
f 83/165/100 86/171/100 84/166/100
f 80/158/101 84/167/101 150/309/101
f 93/183/102 92/181/102 89/178/102
f 92/182/103 87/174/103 89/178/103
f 59/109/104 90/179/104 91/180/104
f 94/184/105 98/190/105 99/192/105
f 127/256/106 101/198/106 105/208/106
f 109/218/107 113/226/107 110/221/107
f 108/215/108 111/223/108 114/229/108
f 147/302/109 108/216/109 112/225/109
f 146/300/110 115/231/110 118/236/110
f 117/235/111 116/233/111 119/237/111
f 144/295/112 121/244/112 125/251/112
f 103/202/113 107/213/113 104/205/113
f 128/258/114 99/193/114 96/188/114
f 99/194/115 98/190/115 97/189/115
f 10/15/116 129/260/116 13/25/116
f 39/65/117 38/64/117 41/69/117
f 65/122/118 131/265/118 66/125/118
f 132/267/119 134/272/119 34/56/119
f 133/269/120 135/274/120 36/60/120
f 34/57/121 134/272/121 135/275/121
f 43/72/122 136/277/122 46/81/122
f 137/279/123 138/281/123 45/77/123
f 43/73/124 46/81/124 138/282/124
f 68/130/125 67/128/125 72/140/125
f 69/132/38 73/143/38 70/134/38
f 139/284/126 141/289/126 48/84/126
f 140/286/127 51/92/127 50/88/127
f 51/93/128 48/85/128 141/289/128
f 142/291/129 143/294/129 27/49/129
f 122/245/130 144/296/130 125/252/130
f 126/254/131 122/246/131 125/252/131
f 145/298/132 146/301/132 119/238/132
f 119/239/1 146/301/1 120/242/1
f 147/303/133 112/225/133 113/227/133
f 113/228/134 112/225/134 114/230/134
f 106/212/135 104/206/135 107/214/135
f 148/305/136 104/206/136 105/209/136
f 103/203/137 102/201/137 107/214/137
f 149/307/138 150/310/138 85/169/138
f 85/170/1 150/310/1 86/172/1
l 32 31
